<?xml version="1.0" standalone="no"?><!DOCTYPE svg PUBLIC "-//W3C//DTD SVG 1.1//EN" "http://www.w3.org/Graphics/SVG/1.1/DTD/svg11.dtd"><svg t="1676192050330" class="icon" viewBox="0 0 1024 1024" version="1.1" xmlns="http://www.w3.org/2000/svg" p-id="860" xmlns:xlink="http://www.w3.org/1999/xlink" width="180" height="180"><path d="M882.346667 569.813333c56.106667 99.2-75.306667 209.92-139.093334 256a55.466667 55.466667 0 0 1-64 0c-64-45.866667-195.2-156.586667-139.093333-256a103.04 103.04 0 0 1 164.693333-21.333333 9.386667 9.386667 0 0 0 13.653334 0 103.04 103.04 0 0 1 164.693333 21.333333z" fill="#FC455D" p-id="861"></path><path d="M815.36 337.066667a195.413333 195.413333 0 0 0-320-56.96 17.92 17.92 0 0 1-26.026667 0A195.413333 195.413333 0 0 0 149.333333 337.066667C54.613333 547.413333 381.226667 778.88 463.36 832a33.28 33.28 0 0 0 36.693333 0c81.92-53.12 408.533333-284.586667 315.306667-494.933333z m-390.186667 28.586666a32 32 0 0 1-40.106666 21.333334 64 64 0 0 0-81.493334 74.666666 32 32 0 1 1-62.506666 13.44 128 128 0 0 1 162.986666-149.333333 32 32 0 0 1 21.12 39.893333z" fill="#FC455D" p-id="862"></path></svg>