<?xml version="1.0" standalone="no"?><!DOCTYPE svg PUBLIC "-//W3C//DTD SVG 1.1//EN" "http://www.w3.org/Graphics/SVG/1.1/DTD/svg11.dtd"><svg t="1676260374301" class="icon" viewBox="0 0 1024 1024" version="1.1" xmlns="http://www.w3.org/2000/svg" p-id="37105" xmlns:xlink="http://www.w3.org/1999/xlink" width="180" height="180"><path d="M864 874.666667a32 32 0 0 1 0 64h-704a32 32 0 0 1 0-64h704zM853.333333 85.333333a128 128 0 0 1 128 128v469.333334a128 128 0 0 1-128 128H170.666667a128 128 0 0 1-128-128V213.333333a128 128 0 0 1 128-128h682.666666z m0 64H170.666667a64 64 0 0 0-63.893334 60.245334L106.666667 213.333333v469.333334a64 64 0 0 0 60.245333 63.893333L170.666667 746.666667h682.666666a64 64 0 0 0 63.893334-60.245334L917.333333 682.666667V213.333333a64 64 0 0 0-60.245333-63.893333L853.333333 149.333333z m-41.429333 126.656a32 32 0 0 1 2.304 42.816l-2.197333 2.432-212.373334 213.333334a32 32 0 0 1-42.773333 2.346666l-2.432-2.197333L448 429.162667l-190.72 190.805333a32 32 0 0 1-42.837333 2.197333l-2.432-2.197333a32 32 0 0 1-2.197334-42.837333l2.197334-2.432 213.269333-213.333334a32 32 0 0 1 42.752-2.261333l2.432 2.176 106.304 105.493333 189.866667-190.677333a32 32 0 0 1 45.248-0.106667z" fill="#131415" p-id="37106"></path></svg>