<?xml version="1.0" standalone="no"?><!DOCTYPE svg PUBLIC "-//W3C//DTD SVG 1.1//EN" "http://www.w3.org/Graphics/SVG/1.1/DTD/svg11.dtd"><svg t="1676262540826" class="icon" viewBox="0 0 1024 1024" version="1.1" xmlns="http://www.w3.org/2000/svg" p-id="50238" xmlns:xlink="http://www.w3.org/1999/xlink" width="180" height="180"><path d="M0 0h1024v1024H0V0z" fill="#202425" opacity=".01" p-id="50239"></path><path d="M307.2 170.666667a34.133333 34.133333 0 0 1 34.133333-34.133334h580.266667a34.133333 34.133333 0 0 1 34.133333 34.133334v682.666666a34.133333 34.133333 0 0 1-34.133333 34.133334H341.333333a34.133333 34.133333 0 0 1-34.133333-34.133334V170.666667z" fill="#FFAA44" p-id="50240"></path><path d="M68.266667 162.6112a34.133333 34.133333 0 0 1 25.156266-32.938667l307.2-83.797333A34.133333 34.133333 0 0 1 443.733333 78.848v866.372267a34.133333 34.133333 0 0 1-43.1104 32.938666l-307.2-83.797333A34.133333 34.133333 0 0 1 68.266667 861.3888V162.6112z" fill="#11AA66" p-id="50241"></path><path d="M648.533333 319.214933a17.066667 17.066667 0 0 1 30.037334-11.127466l165.239466 192.8192a17.066667 17.066667 0 0 1 0 22.186666l-165.239466 192.8192a17.066667 17.066667 0 0 1-30.037334-11.127466V580.266667h-85.333333a17.066667 17.066667 0 0 1-17.066667-17.066667v-102.4a17.066667 17.066667 0 0 1 17.066667-17.066667H648.533333V319.214933zM341.333333 443.733333a34.133333 34.133333 0 0 0-34.133333 34.133334v68.266666a34.133333 34.133333 0 1 0 68.266667 0v-68.266666a34.133333 34.133333 0 0 0-34.133334-34.133334z" fill="#FFFFFF" p-id="50242"></path></svg>