<?xml version="1.0" standalone="no"?><!DOCTYPE svg PUBLIC "-//W3C//DTD SVG 1.1//EN" "http://www.w3.org/Graphics/SVG/1.1/DTD/svg11.dtd"><svg t="1676259016021" class="icon" viewBox="0 0 1024 1024" version="1.1" xmlns="http://www.w3.org/2000/svg" p-id="31893" xmlns:xlink="http://www.w3.org/1999/xlink" width="180" height="180"><path d="M897.8 536.5c9.8-1.4 17.8 6.1 17.8 16.7l-0.7 345.8c0 10.6-8 20.3-17.8 21.7l-180.8 25.4 0.7-384.3 180.8-25.3z" fill="#D30032" p-id="31894"></path><path d="M716.9 561.9l-0.7 384.2-136.8 19.3 0.7-384.3z" fill="#FFA300" p-id="31895"></path><path d="M380.9 974.1l0.6-345.8c0-0.7 0-1.3 0.1-2 0-0.2 0.1-0.4 0.1-0.6 0.1-0.4 0.1-0.9 0.2-1.3 0-0.3 0.1-0.5 0.2-0.8 0.1-0.4 0.2-0.8 0.3-1.1 0.1-0.3 0.2-0.5 0.3-0.8 0.1-0.3 0.2-0.7 0.3-1 0.1-0.1 0.1-0.3 0.2-0.4 0.2-0.4 0.3-0.8 0.5-1.2l0.3-0.6c0.2-0.4 0.4-0.7 0.6-1.1 0.1-0.1 0.2-0.3 0.3-0.4 0.3-0.4 0.5-0.8 0.8-1.2 0-0.1 0.1-0.1 0.1-0.2 0.3-0.5 0.7-0.9 1-1.3l0.3-0.3c0.3-0.4 0.6-0.7 0.9-1.1 0.1-0.1 0.1-0.2 0.2-0.2 0.4-0.4 0.8-0.8 1.2-1.1l0.3-0.3c0.3-0.3 0.7-0.5 1-0.8 0.1-0.1 0.3-0.2 0.4-0.3 0.3-0.2 0.6-0.4 1-0.6 0.2-0.1 0.4-0.2 0.6-0.4 0.4-0.2 0.7-0.4 1.1-0.6 0.2-0.1 0.3-0.2 0.5-0.2l1.5-0.6c0.1-0.1 0.3-0.1 0.4-0.1 0.4-0.1 0.8-0.3 1.2-0.4 0.2 0 0.3-0.1 0.5-0.1 0.5-0.1 1.1-0.2 1.6-0.3L125.9 457.7c-0.5 0.1-1.1 0.2-1.6 0.3-0.2 0-0.3 0.1-0.5 0.1-0.4 0.1-0.8 0.2-1.2 0.4-0.1 0-0.3 0.1-0.4 0.1-0.5 0.2-1 0.4-1.4 0.6h-0.1c-0.2 0.1-0.3 0.2-0.5 0.2-0.4 0.2-0.7 0.4-1.1 0.6-0.2 0.1-0.4 0.2-0.6 0.4-0.2 0.1-0.5 0.3-0.7 0.4-0.1 0.1-0.2 0.1-0.3 0.2-0.1 0.1-0.3 0.2-0.4 0.3-0.3 0.3-0.7 0.5-1 0.8l-0.3 0.3c-0.1 0-0.1 0.1-0.2 0.1-0.4 0.3-0.7 0.7-1 1-0.1 0.1-0.1 0.2-0.2 0.2l-0.6 0.6c-0.1 0.1-0.2 0.3-0.4 0.4l-0.3 0.3c-0.3 0.4-0.7 0.8-1 1.3v0.1c-0.1 0.1-0.1 0.1-0.1 0.2-0.3 0.4-0.5 0.8-0.8 1.2-0.1 0.1-0.2 0.3-0.3 0.4-0.1 0.1-0.2 0.3-0.2 0.4-0.1 0.2-0.2 0.4-0.3 0.7l-0.3 0.6c-0.2 0.4-0.4 0.8-0.5 1.2-0.1 0.1-0.1 0.3-0.2 0.4v0.1c-0.1 0.3-0.2 0.6-0.3 1-0.1 0.3-0.2 0.5-0.3 0.8-0.1 0.4-0.2 0.8-0.3 1.1-0.1 0.2-0.1 0.5-0.2 0.7-0.1 0.4-0.1 0.9-0.2 1.3 0 0.2-0.1 0.4-0.1 0.6-0.1 0.6-0.1 1.3-0.1 2l-0.6 345.8c0 6.8 3.3 12.4 8.3 15.1l273.5 148.8c-4.9-2.4-8.2-7.9-8.2-14.7z" fill="#AA0404" p-id="31896"></path><path d="M580.1 581.1l-0.7 384.3-180.8 25.4c-9.8 1.4-17.8-6.1-17.8-16.7l0.6-345.8c0-10.6 8-20.3 17.8-21.7l180.9-25.5z" fill="#D30032" p-id="31897"></path><path d="M580.5 394L307 245.2l136.8-19.3 273.5 148.8z" fill="#B3AA5A" p-id="31898"></path><path d="M936.8 343.9c9.9-1.4 17.8 6.1 17.8 16.7l-0.3 148.7c0 10.6-8 20.3-17.8 21.7l-38.6 5.4L717 561.9l0.3-187.1 219.5-30.9z" fill="#F77490" p-id="31899"></path><path d="M938.7 343.7h1.5c0.3 0 0.6 0.1 1 0.1 0.2 0 0.3 0 0.5 0.1 0.4 0.1 0.8 0.1 1.2 0.2h0.2c0.4 0.1 0.9 0.3 1.3 0.4 0.1 0 0.2 0.1 0.4 0.1 0.3 0.1 0.6 0.2 0.9 0.4 0.3 0.1 0.5 0.2 0.7 0.4L672.8 196.7c-0.2-0.1-0.4-0.2-0.5-0.3-0.1 0-0.1-0.1-0.2-0.1-0.3-0.1-0.6-0.3-0.9-0.4-0.1 0-0.2-0.1-0.4-0.1-0.4-0.2-0.9-0.3-1.3-0.4h-0.2c-0.4-0.1-0.8-0.2-1.2-0.2-0.2 0-0.3 0-0.5-0.1-0.3 0-0.6-0.1-1-0.1h-2c-0.5 0-1 0.1-1.5 0.1l-219.4 30.8 273.5 148.8 219.4-30.8c0.5-0.1 1-0.1 1.5-0.1 0.3-0.1 0.5-0.1 0.6-0.1z" fill="#D30032" p-id="31900"></path><path d="M717.3 374.7l-0.4 187.2-136.8 19.2 0.4-187.1z" fill="#FDF17F" p-id="31901"></path><path d="M343.4 444.6c0-0.2 0.1-0.4 0.1-0.6 0.1-0.4 0.1-0.9 0.2-1.3 0-0.3 0.1-0.5 0.2-0.8 0.1-0.4 0.2-0.8 0.3-1.1 0.1-0.3 0.2-0.5 0.3-0.8 0.1-0.4 0.2-0.7 0.3-1 0-0.1 0.1-0.2 0.1-0.3 0.2-0.5 0.4-0.9 0.6-1.3l0.3-0.6c0.2-0.4 0.4-0.7 0.6-1.1 0.1-0.1 0.2-0.3 0.2-0.4 0.2-0.4 0.5-0.8 0.8-1.2 0.1-0.1 0.1-0.2 0.2-0.3 0.3-0.5 0.7-0.9 1-1.3l0.3-0.3c0.3-0.4 0.6-0.7 0.9-1.1 0.1-0.1 0.1-0.2 0.2-0.2 0.4-0.4 0.8-0.8 1.2-1.1l0.3-0.3c0.3-0.3 0.7-0.5 1-0.8 0.1-0.1 0.3-0.2 0.4-0.3 0.3-0.2 0.6-0.4 1-0.6 0.2-0.1 0.4-0.2 0.6-0.4l1.2-0.6c0.1-0.1 0.3-0.1 0.4-0.2l1.5-0.6c0.1-0.1 0.3-0.1 0.4-0.1 0.4-0.1 0.8-0.3 1.2-0.4 0.2 0 0.3-0.1 0.5-0.1 0.5-0.1 1.1-0.2 1.6-0.3L580.5 394 307 245.2 87.6 276c-0.6 0.1-1.1 0.2-1.6 0.3-0.2 0-0.3 0.1-0.5 0.1-0.4 0.1-0.8 0.2-1.2 0.4-0.1 0-0.3 0.1-0.4 0.1l-1.5 0.6h-0.1c-0.1 0.1-0.3 0.1-0.4 0.2-0.4 0.2-0.8 0.4-1.1 0.6-0.2 0.1-0.4 0.2-0.6 0.4-0.2 0.2-0.5 0.3-0.7 0.5-0.1 0.1-0.2 0.1-0.2 0.2-0.1 0.1-0.3 0.2-0.4 0.3-0.3 0.3-0.7 0.5-1 0.8l-0.3 0.3c-0.1 0-0.1 0.1-0.2 0.1-0.4 0.3-0.7 0.7-1 1-0.1 0.1-0.1 0.2-0.2 0.2l-0.6 0.6c-0.1 0.2-0.3 0.3-0.4 0.5l-0.3 0.3c-0.3 0.4-0.6 0.8-0.9 1.3 0 0 0 0.1-0.1 0.1-0.1 0.1-0.1 0.2-0.2 0.3-0.3 0.4-0.5 0.8-0.8 1.2-0.1 0.1-0.2 0.3-0.2 0.4-0.1 0.1-0.1 0.2-0.2 0.4s-0.2 0.5-0.4 0.7l-0.3 0.6c-0.2 0.4-0.4 0.9-0.6 1.3 0 0.1-0.1 0.2-0.1 0.3-0.1 0.3-0.2 0.7-0.3 1-0.1 0.3-0.2 0.5-0.3 0.8-0.1 0.4-0.2 0.7-0.3 1.1-0.1 0.3-0.1 0.5-0.2 0.8-0.1 0.4-0.1 0.9-0.2 1.3 0 0.2-0.1 0.4-0.1 0.6-0.1 0.6-0.1 1.3-0.1 2l-0.3 148.7c0 6 2.5 11 6.5 13.9 0.6 0.4 1.2 0.8 1.8 1.1l273.5 148.8c-5-2.7-8.3-8.3-8.3-15.1l0.3-148.7c0.2-0.5 0.2-1.2 0.3-1.8z" fill="#D30032" p-id="31902"></path><path d="M580.5 394l-0.3 187.1-180.8 25.4-38.6 5.4c-9.8 1.4-17.8-6.1-17.8-16.7l0.3-148.7c0-10.6 8-20.3 17.8-21.7L580.5 394z" fill="#F77490" p-id="31903"></path><path d="M649.6 280.2v-0.2c0.1-1.5 0.3-3 0.5-4.5v-0.3c0.2-1.5 0.4-2.9 0.7-4.4 0-0.1 0-0.2 0.1-0.3 0.3-1.4 0.6-2.9 0.9-4.3 0-0.1 0.1-0.3 0.1-0.4 0.3-1.4 0.7-2.8 1.1-4.2 0-0.1 0.1-0.3 0.1-0.4 0.4-1.4 0.8-2.7 1.2-4.1 0-0.2 0.1-0.3 0.1-0.5 0.4-1.3 0.9-2.7 1.4-4 0.1-0.2 0.1-0.3 0.2-0.5 0.4-1.1 0.8-2.2 1.3-3.3l0.3-0.6c0.5-1.1 0.9-2.2 1.4-3.3 0.1-0.1 0.1-0.2 0.2-0.3 0.5-1 1-2.1 1.5-3.1 0.1-0.1 0.1-0.3 0.2-0.4 0.5-1.1 1.1-2.1 1.6-3.1 0.1-0.2 0.2-0.4 0.4-0.7 0.5-0.8 0.9-1.7 1.4-2.5 0-0.1 0.1-0.1 0.1-0.2 0.5-0.9 1-1.7 1.5-2.6 0.1-0.2 0.3-0.5 0.4-0.7 0.4-0.7 0.9-1.4 1.4-2.1 0.1-0.2 0.2-0.3 0.3-0.5 0.6-0.8 1.1-1.7 1.7-2.5 0.1-0.2 0.3-0.4 0.4-0.6 0.4-0.6 0.8-1.2 1.3-1.8 0.2-0.2 0.3-0.5 0.5-0.7 0.6-0.7 1.1-1.5 1.7-2.2 0 0 0-0.1 0.1-0.1 0.6-0.7 1.2-1.5 1.8-2.2 0.2-0.2 0.4-0.4 0.5-0.6 0.5-0.6 0.9-1.1 1.4-1.6 0.2-0.2 0.3-0.4 0.5-0.6 0.6-0.7 1.3-1.4 1.9-2.1 0.1-0.1 0.2-0.2 0.2-0.3 0.6-0.6 1.2-1.2 1.7-1.8l0.6-0.6c0.5-0.5 1.1-1 1.6-1.6l0.5-0.5c0.7-0.7 1.4-1.3 2.1-1.9 0.1-0.1 0.3-0.2 0.4-0.4 0.6-0.6 1.3-1.1 1.9-1.7 0.2-0.2 0.4-0.3 0.6-0.5 0.8-0.6 1.5-1.3 2.3-1.9 0.1-0.1 0.2-0.2 0.3-0.2 0.7-0.6 1.4-1.1 2.1-1.6 0.2-0.2 0.4-0.3 0.6-0.5 0.8-0.6 1.6-1.2 2.4-1.7h0.1c1-0.7 2.1-1.4 3.2-2.1 0.1-0.1 0.2-0.2 0.4-0.2 1-0.6 2.1-1.3 3.1-1.9 0.2-0.1 0.4-0.2 0.5-0.3 1-0.6 2.1-1.2 3.1-1.7l0.6-0.3c1.1-0.6 2.1-1.1 3.2-1.6 0.2-0.1 0.4-0.2 0.5-0.2 0.8-0.3 1.5-0.7 2.3-1 0.2-0.1 0.4-0.2 0.7-0.3 0.9-0.4 1.8-0.8 2.7-1.1 0.2-0.1 0.3-0.1 0.5-0.2l2.4-0.9c0.2-0.1 0.5-0.2 0.7-0.2 0.9-0.3 1.9-0.6 2.8-0.9 0.1 0 0.3-0.1 0.4-0.1 0.8-0.2 1.7-0.5 2.5-0.7 0.2-0.1 0.5-0.1 0.7-0.2 1-0.2 1.9-0.5 2.9-0.7 0.1 0 0.2 0 0.2-0.1 0.9-0.2 1.8-0.4 2.7-0.5 0.3 0 0.5-0.1 0.8-0.1 1-0.2 2-0.3 3-0.5 1.2-0.2 2.4-0.3 3.7-0.4 0.4 0 0.8-0.1 1.1-0.1 0.8-0.1 1.7-0.1 2.5-0.2 0.4 0 0.8 0 1.3-0.1H749.3c1 0 2 0 3 0.1h0.5c1.2 0.1 2.3 0.2 3.5 0.3 0.3 0 0.7 0.1 1 0.1l2.4 0.3c0.4 0.1 0.8 0.1 1.2 0.2 0.8 0.1 1.5 0.3 2.3 0.4 0.4 0.1 0.8 0.1 1.1 0.2 0.9 0.2 1.7 0.4 2.6 0.6 0.2 0.1 0.5 0.1 0.7 0.2l3.3 0.9c0.3 0.1 0.6 0.2 0.8 0.3 0.8 0.3 1.6 0.5 2.4 0.8 0.4 0.1 0.7 0.3 1.1 0.4 0.7 0.3 1.5 0.6 2.2 0.9 0.3 0.1 0.7 0.3 1 0.4 0.9 0.4 1.8 0.8 2.8 1.3 0.1 0 0.2 0.1 0.3 0.1 0.9 0.4 1.8 0.9 2.6 1.4L510.5 41.9c-0.9-0.5-1.7-0.9-2.6-1.4-0.1 0-0.2-0.1-0.3-0.1-0.9-0.4-1.8-0.9-2.8-1.3-0.3-0.1-0.7-0.3-1-0.4-0.7-0.3-1.5-0.6-2.2-0.9-0.4-0.1-0.7-0.3-1.1-0.4-0.8-0.3-1.6-0.6-2.4-0.8-0.3-0.1-0.6-0.2-0.8-0.3l-3.3-0.9h-0.1c-0.2-0.1-0.4-0.1-0.6-0.1-0.9-0.2-1.7-0.4-2.6-0.6-0.4-0.1-0.8-0.2-1.1-0.2-0.8-0.1-1.5-0.3-2.3-0.4-0.4-0.1-0.8-0.1-1.2-0.2l-2.4-0.3c-0.3 0-0.7-0.1-1-0.1-1.1-0.1-2.3-0.2-3.5-0.3h-0.5c-1 0-2-0.1-3-0.1H472.1c-0.4 0-0.8 0-1.3 0.1-0.8 0-1.7 0.1-2.5 0.2-0.4 0-0.8 0.1-1.1 0.1-1.2 0.1-2.4 0.3-3.7 0.4-1 0.1-2 0.3-3 0.5-0.3 0-0.5 0.1-0.8 0.1-0.9 0.2-1.8 0.3-2.7 0.5-0.1 0-0.2 0-0.2 0.1-1 0.2-1.9 0.5-2.9 0.7-0.2 0.1-0.5 0.1-0.7 0.2-0.8 0.2-1.7 0.5-2.5 0.7-0.1 0-0.3 0.1-0.4 0.1-0.9 0.3-1.9 0.6-2.8 0.9-0.2 0.1-0.5 0.2-0.7 0.2l-2.4 0.9c-0.2 0.1-0.3 0.1-0.5 0.2-0.9 0.4-1.8 0.7-2.7 1.1-0.2 0.1-0.4 0.2-0.7 0.3-0.8 0.3-1.5 0.7-2.3 1-0.1 0.1-0.3 0.1-0.4 0.2 0 0-0.1 0-0.1 0.1-1.1 0.5-2.2 1-3.2 1.6l-0.6 0.3c-1.1 0.6-2.1 1.1-3.1 1.7-0.2 0.1-0.4 0.2-0.5 0.3-1 0.6-2.1 1.2-3.1 1.9-0.1 0.1-0.2 0.2-0.4 0.2-1.1 0.7-2.1 1.4-3.2 2.1-0.8 0.6-1.6 1.2-2.4 1.7-0.2 0.2-0.4 0.3-0.6 0.5-0.7 0.5-1.4 1.1-2.1 1.6-0.1 0.1-0.2 0.2-0.3 0.2-0.8 0.6-1.6 1.3-2.3 1.9-0.2 0.2-0.4 0.3-0.6 0.5-0.6 0.6-1.3 1.1-1.9 1.7l-0.3 0.3-0.1 0.1c-0.7 0.6-1.4 1.3-2.1 1.9l-0.5 0.5c-0.5 0.5-1.1 1-1.6 1.6l-0.6 0.6c-0.6 0.6-1.2 1.2-1.7 1.8-0.1 0.1-0.2 0.2-0.2 0.3-0.6 0.7-1.3 1.4-1.9 2.1l-0.2 0.2c-0.1 0.1-0.2 0.3-0.3 0.4-0.5 0.5-0.9 1.1-1.4 1.6-0.2 0.2-0.4 0.4-0.5 0.6-0.6 0.7-1.2 1.5-1.8 2.2 0 0 0 0.1-0.1 0.1-0.6 0.7-1.1 1.5-1.7 2.2-0.2 0.2-0.3 0.4-0.5 0.7-0.4 0.6-0.9 1.2-1.3 1.8-0.1 0.1-0.2 0.3-0.3 0.4 0 0.1-0.1 0.1-0.1 0.2-0.6 0.8-1.1 1.6-1.7 2.5-0.1 0.2-0.2 0.3-0.3 0.5-0.5 0.7-0.9 1.4-1.4 2.1-0.1 0.2-0.3 0.5-0.4 0.7-0.5 0.9-1 1.7-1.5 2.6 0 0.1-0.1 0.1-0.1 0.2-0.5 0.8-0.9 1.6-1.4 2.5-0.1 0.1-0.1 0.2-0.2 0.4-0.1 0.1-0.1 0.2-0.2 0.3-0.6 1-1.1 2.1-1.6 3.1-0.1 0.1-0.1 0.3-0.2 0.4-0.5 1-1 2.1-1.5 3.1-0.1 0.1-0.1 0.2-0.2 0.3-0.5 1.1-1 2.2-1.4 3.3l-0.3 0.6c-0.4 1.1-0.9 2.2-1.3 3.3 0 0.1-0.1 0.1-0.1 0.2s-0.1 0.2-0.1 0.3c-0.5 1.3-0.9 2.6-1.4 4 0 0.2-0.1 0.3-0.1 0.5-0.4 1.4-0.8 2.7-1.2 4.1 0 0.1-0.1 0.3-0.1 0.4-0.4 1.4-0.7 2.8-1.1 4.2 0 0.1-0.1 0.3-0.1 0.4-0.3 1.4-0.6 2.8-0.9 4.3 0 0.1 0 0.2-0.1 0.3-0.3 1.5-0.5 2.9-0.7 4.4v0.3c-0.2 1.5-0.4 3-0.5 4.5v0.2c-0.1 1.5-0.3 3.1-0.3 4.6v0.1c-0.1 1.6-0.1 3.1-0.1 4.7 0 26.1-0.2 91.3-0.2 94.7L649 384.4c0-3.4 0.1-68.6 0.2-94.7 0-1.6 0-3.2 0.1-4.7v-0.1c0-1.6 0.1-3.2 0.3-4.7z" fill="#FFA300" p-id="31904"></path><path d="M737 182.7c48.4-6.8 87.7 29.9 87.6 82.3-0.1 52.4-39.5 100.2-87.9 107-24.3 3.4-84.6 11.9-87.8 12.3 0-3.4 0.1-68.6 0.2-94.7 0.1-52.2 39.5-100.1 87.9-106.9z" fill="#FDF17F" p-id="31905"></path><path d="M561.5 207.2c48.5-6.8 87.7 30.1 87.6 82.4 0 26.1-0.2 91.3-0.2 94.7-3.2 0.4-63.5 8.9-87.8 12.3-48.4 6.8-87.7-30-87.6-82.4 0.2-52.3 39.5-100.1 88-107z" fill="#FDF17F" p-id="31906"></path><path d="M511 386.7c-0.4-0.2-0.7-0.4-1.1-0.7-0.4-0.2-0.7-0.5-1.1-0.7-0.4-0.2-0.7-0.5-1.1-0.7-0.4-0.3-0.7-0.5-1.1-0.8-0.3-0.2-0.7-0.5-1-0.7-0.4-0.3-0.7-0.5-1.1-0.8-0.3-0.3-0.7-0.5-1-0.8-0.3-0.3-0.7-0.6-1-0.9-0.3-0.3-0.7-0.5-1-0.8-0.3-0.3-0.7-0.6-1-0.9-0.3-0.3-0.6-0.6-1-0.9-0.3-0.3-0.6-0.6-1-0.9l-0.9-0.9c-0.3-0.3-0.6-0.7-1-1l-0.9-0.9c-0.3-0.3-0.6-0.7-0.9-1-0.3-0.3-0.6-0.6-0.9-1-0.3-0.3-0.6-0.7-0.9-1-0.3-0.3-0.6-0.7-0.8-1-0.3-0.4-0.6-0.7-0.8-1.1-0.3-0.3-0.5-0.7-0.8-1-0.3-0.4-0.5-0.7-0.8-1.1-0.3-0.4-0.5-0.7-0.8-1.1-0.3-0.4-0.5-0.8-0.8-1.1-0.2-0.4-0.5-0.7-0.7-1.1-0.3-0.4-0.5-0.8-0.7-1.2-0.2-0.4-0.5-0.7-0.7-1.1-0.2-0.4-0.5-0.8-0.7-1.2-0.2-0.4-0.5-0.8-0.7-1.2-0.2-0.4-0.4-0.8-0.7-1.2l-0.6-1.2-0.6-1.2-0.6-1.2c-0.2-0.4-0.4-0.9-0.6-1.3l-0.6-1.2c-0.2-0.4-0.4-0.9-0.6-1.3-0.2-0.4-0.3-0.8-0.5-1.2-0.2-0.5-0.3-0.9-0.5-1.4-0.2-0.4-0.3-0.8-0.5-1.3s-0.3-0.9-0.5-1.4c-0.1-0.4-0.3-0.8-0.4-1.3-0.2-0.5-0.3-1-0.4-1.4-0.1-0.4-0.3-0.9-0.4-1.3-0.1-0.5-0.3-1-0.4-1.5-0.1-0.4-0.2-0.9-0.4-1.3-0.1-0.5-0.2-1-0.4-1.5-0.1-0.4-0.2-0.9-0.3-1.3-0.1-0.5-0.2-1.1-0.3-1.6-0.1-0.4-0.2-0.8-0.3-1.3-0.1-0.5-0.2-1.1-0.3-1.6-0.1-0.4-0.2-0.9-0.2-1.3-0.1-0.5-0.1-1-0.2-1.5s-0.1-1-0.2-1.4c-0.1-0.5-0.1-1-0.2-1.5s-0.1-1-0.2-1.5c-0.1-0.6-0.1-1.1-0.1-1.7 0-0.4-0.1-0.9-0.1-1.3 0-0.7-0.1-1.5-0.1-2.3v-0.8-3.1c0-1.6 0-3.2 0.1-4.8v-0.1c0.1-1.6 0.2-3.1 0.3-4.6v-0.2c0.1-1.5 0.3-3 0.5-4.5v-0.2c0.2-1.5 0.4-3 0.7-4.4 0-0.1 0-0.2 0.1-0.3 0.3-1.5 0.6-2.9 0.9-4.3 0-0.1 0-0.2 0.1-0.3 0.3-1.4 0.7-2.8 1.1-4.2 0-0.1 0.1-0.3 0.1-0.4 0.4-1.4 0.8-2.8 1.2-4.1 0-0.1 0.1-0.3 0.1-0.4 0.4-1.4 0.9-2.7 1.4-4 0.1-0.2 0.1-0.3 0.2-0.5 0.4-1.1 0.8-2.2 1.3-3.3 0.1-0.2 0.2-0.4 0.3-0.7 0.5-1.1 0.9-2.2 1.4-3.3 0.1-0.1 0.1-0.3 0.2-0.4 0.5-1 1-2.1 1.5-3.1 0.1-0.1 0.1-0.2 0.2-0.4 0.5-1.1 1.1-2.1 1.6-3.2 0.1-0.2 0.2-0.4 0.4-0.7 0.5-0.9 1-1.8 1.5-2.6 0.5-0.9 1-1.7 1.6-2.6 0.1-0.2 0.3-0.5 0.4-0.7 0.5-0.7 0.9-1.4 1.4-2.2 0.1-0.1 0.2-0.3 0.3-0.4 0.5-0.8 1.1-1.7 1.7-2.5 0.2-0.2 0.3-0.4 0.5-0.7 0.4-0.6 0.8-1.2 1.3-1.7 0.2-0.2 0.3-0.4 0.5-0.7 0.6-0.8 1.1-1.5 1.7-2.3l0.1-0.1c0.6-0.7 1.1-1.4 1.7-2.1 0.2-0.2 0.4-0.4 0.5-0.6 0.5-0.6 0.9-1.1 1.4-1.6 0.2-0.2 0.3-0.4 0.5-0.6 0.6-0.7 1.3-1.4 1.9-2.1l0.3-0.3c0.6-0.6 1.1-1.2 1.7-1.7l0.6-0.6 1.6-1.6 0.5-0.5c0.7-0.6 1.4-1.3 2.1-1.9l0.4-0.4c0.6-0.6 1.3-1.1 1.9-1.7 0.2-0.2 0.4-0.3 0.6-0.5 0.8-0.6 1.5-1.3 2.3-1.9 0.1-0.1 0.2-0.2 0.3-0.2 0.7-0.5 1.4-1.1 2.1-1.6 0.2-0.2 0.4-0.3 0.6-0.5 0.8-0.6 1.6-1.2 2.4-1.7h0.1c1-0.7 2.1-1.4 3.1-2.1 0.1-0.1 0.2-0.2 0.4-0.2 1-0.6 2.1-1.3 3.1-1.9 0.2-0.1 0.4-0.2 0.5-0.3 1-0.6 2.1-1.2 3.1-1.7l0.6-0.3c1.1-0.6 2.1-1.1 3.2-1.6 0.2-0.1 0.3-0.2 0.5-0.2 0.8-0.4 1.5-0.7 2.3-1 0.2-0.1 0.4-0.2 0.7-0.3 0.9-0.4 1.8-0.8 2.7-1.1 0.2-0.1 0.3-0.1 0.5-0.2l2.4-0.9c0.2-0.1 0.5-0.2 0.7-0.2 0.9-0.3 1.9-0.6 2.8-0.9 0.1 0 0.3-0.1 0.4-0.1 0.8-0.3 1.7-0.5 2.5-0.7 0.2-0.1 0.5-0.1 0.7-0.2 1-0.2 1.9-0.5 2.9-0.7h0.2c0.9-0.2 1.8-0.4 2.7-0.5 0.3 0 0.5-0.1 0.8-0.1 1-0.2 2-0.3 3-0.5 1.2-0.2 2.4-0.3 3.7-0.4 0.4 0 0.8-0.1 1.1-0.1 0.8-0.1 1.7-0.1 2.5-0.2 0.4 0 0.8 0 1.3-0.1H573.7c1 0 2.1 0 3.1 0.1h0.4c1.2 0.1 2.3 0.2 3.5 0.3 0.3 0 0.7 0.1 1 0.1l2.4 0.3c0.4 0.1 0.8 0.1 1.2 0.2 0.8 0.1 1.5 0.3 2.3 0.4 0.4 0.1 0.8 0.1 1.1 0.2 0.9 0.2 1.8 0.4 2.6 0.6 0.2 0.1 0.4 0.1 0.7 0.2l3.3 0.9 0.9 0.3c0.8 0.3 1.6 0.5 2.4 0.8 0.4 0.1 0.7 0.3 1.1 0.4 0.7 0.3 1.5 0.6 2.2 0.9 0.3 0.1 0.6 0.3 1 0.4 1 0.4 2 0.9 3 1.4h0.1c0.9 0.4 1.8 0.9 2.7 1.4L334.9 66.5h-0.1c-0.8-0.5-1.7-0.9-2.6-1.3h-0.1c-1-0.5-2-0.9-3-1.4-0.3-0.1-0.6-0.3-1-0.4-0.7-0.3-1.5-0.6-2.2-0.9-0.4-0.1-0.7-0.3-1.1-0.4-0.8-0.3-1.6-0.5-2.4-0.8l-0.9-0.3-3.3-0.9h-0.1c-0.2 0-0.4-0.1-0.6-0.1-0.9-0.2-1.7-0.4-2.6-0.6-0.4-0.1-0.8-0.1-1.1-0.2-0.8-0.1-1.5-0.3-2.3-0.4-0.4-0.1-0.8-0.1-1.2-0.2l-2.4-0.3c-0.3 0-0.7-0.1-1-0.1-1.1-0.1-2.3-0.2-3.5-0.3h-0.4c-1 0-2-0.1-3.1-0.1H296.3c-0.4 0-0.8 0-1.3 0.1-0.8 0-1.7 0.1-2.5 0.2-0.4 0-0.8 0.1-1.1 0.1-1.2 0.1-2.4 0.3-3.7 0.4-1 0.1-2 0.3-3 0.5-0.3 0-0.5 0.1-0.8 0.1-0.9 0.2-1.8 0.3-2.7 0.5h-0.2c-1 0.2-1.9 0.5-2.9 0.7-0.2 0.1-0.5 0.1-0.7 0.2-0.8 0.2-1.7 0.5-2.5 0.7-0.1 0-0.3 0.1-0.4 0.1-0.9 0.3-1.9 0.6-2.8 0.9-0.2 0.1-0.5 0.2-0.7 0.2l-2.4 0.9c-0.2 0.1-0.3 0.1-0.5 0.2-0.9 0.4-1.8 0.7-2.7 1.1-0.2 0.1-0.4 0.2-0.7 0.3-0.8 0.3-1.5 0.7-2.3 1-0.1 0.1-0.3 0.1-0.4 0.2 0 0-0.1 0-0.1 0.1-1.1 0.5-2.2 1-3.2 1.6-0.2 0.1-0.4 0.2-0.5 0.3-1.1 0.6-2.1 1.1-3.1 1.7-0.2 0.1-0.4 0.2-0.5 0.3-1 0.6-2.1 1.2-3.1 1.9-0.1 0.1-0.2 0.2-0.4 0.2-1.1 0.7-2.1 1.4-3.2 2.1-0.8 0.6-1.6 1.2-2.4 1.7-0.2 0.2-0.4 0.3-0.6 0.5-0.7 0.5-1.4 1.1-2.1 1.6-0.1 0.1-0.2 0.2-0.3 0.2-0.8 0.6-1.5 1.3-2.3 1.9-0.2 0.2-0.4 0.3-0.6 0.5-0.6 0.5-1.3 1.1-1.9 1.7l-0.3 0.3-0.1 0.1c-0.7 0.6-1.4 1.3-2.1 1.9l-0.5 0.5c-0.5 0.5-1.1 1-1.6 1.6l-0.6 0.6c-0.6 0.6-1.1 1.2-1.7 1.8l-0.3 0.3c-0.6 0.7-1.3 1.4-1.9 2.1l-0.2 0.2c-0.1 0.1-0.2 0.3-0.3 0.4-0.5 0.5-0.9 1.1-1.4 1.6-0.2 0.2-0.4 0.4-0.5 0.6-0.6 0.7-1.2 1.4-1.7 2.1l-0.1 0.1c-0.6 0.7-1.2 1.5-1.7 2.3-0.2 0.2-0.3 0.4-0.5 0.7-0.4 0.6-0.9 1.2-1.3 1.8-0.1 0.1-0.2 0.3-0.3 0.4-0.1 0.1-0.1 0.2-0.2 0.2-0.6 0.8-1.1 1.6-1.7 2.5-0.1 0.1-0.2 0.3-0.3 0.4-0.5 0.7-0.9 1.4-1.4 2.2-0.1 0.2-0.3 0.5-0.4 0.7-0.5 0.9-1 1.7-1.6 2.6-0.5 0.9-1 1.8-1.5 2.6-0.1 0.1-0.1 0.2-0.2 0.3-0.1 0.1-0.1 0.2-0.2 0.3-0.6 1-1.1 2.1-1.6 3.2-0.1 0.1-0.1 0.2-0.2 0.4-0.5 1-1 2.1-1.5 3.1-0.1 0.1-0.1 0.3-0.2 0.4-0.5 1.1-0.9 2.2-1.4 3.3-0.1 0.2-0.2 0.4-0.3 0.7-0.4 1.1-0.9 2.2-1.3 3.3 0 0.1 0 0.1-0.1 0.2 0 0.1-0.1 0.2-0.1 0.3-0.5 1.3-1 2.7-1.4 4 0 0.1-0.1 0.3-0.1 0.4-0.4 1.4-0.8 2.7-1.2 4.1 0 0.1-0.1 0.3-0.1 0.4-0.4 1.4-0.7 2.8-1.1 4.2 0 0.1 0 0.2-0.1 0.3-0.3 1.4-0.6 2.9-0.9 4.3 0 0.1 0 0.2-0.1 0.3-0.3 1.5-0.5 3-0.7 4.4v0.2c-0.2 1.5-0.4 3-0.5 4.5v0.2c-0.1 1.5-0.3 3.1-0.3 4.6v0.1c-0.1 1.6-0.1 3.2-0.1 4.8V169.3c0 0.8 0.1 1.5 0.1 2.3 0 0.5 0.1 0.9 0.1 1.3 0 0.6 0.1 1.1 0.1 1.7 0 0.5 0.1 1 0.2 1.5s0.1 1 0.2 1.5 0.1 1 0.2 1.4c0.1 0.5 0.1 1 0.2 1.5 0.1 0.4 0.1 0.9 0.2 1.3 0.1 0.5 0.2 1.1 0.3 1.6 0.1 0.4 0.2 0.8 0.3 1.3 0.1 0.5 0.2 1.1 0.3 1.6 0.1 0.4 0.2 0.9 0.3 1.3 0.1 0.5 0.2 1 0.4 1.5 0.1 0.4 0.2 0.9 0.4 1.3 0.1 0.5 0.3 1 0.4 1.5 0.1 0.4 0.3 0.9 0.4 1.3 0.1 0.5 0.3 1 0.4 1.4 0.1 0.4 0.3 0.9 0.4 1.3 0.2 0.5 0.3 0.9 0.5 1.4 0.2 0.4 0.3 0.8 0.5 1.3s0.3 0.9 0.5 1.4c0.2 0.4 0.3 0.8 0.5 1.2 0.2 0.4 0.4 0.9 0.6 1.3l0.6 1.2c0.2 0.4 0.4 0.9 0.6 1.3l0.6 1.2 0.6 1.2 0.6 1.2c0.2 0.4 0.4 0.8 0.7 1.2 0.2 0.4 0.5 0.8 0.7 1.2 0.2 0.4 0.5 0.8 0.7 1.2 0.2 0.4 0.5 0.8 0.7 1.2 0.2 0.4 0.5 0.8 0.7 1.1 0.2 0.4 0.5 0.7 0.8 1.1 0.3 0.4 0.5 0.8 0.8 1.1 0.2 0.4 0.5 0.7 0.8 1 0.3 0.4 0.5 0.8 0.8 1.1 0.3 0.3 0.5 0.7 0.8 1 0.3 0.4 0.6 0.7 0.9 1.1 0.3 0.3 0.5 0.6 0.8 1 0.3 0.4 0.6 0.7 0.9 1.1l0.9 0.9c0.3 0.3 0.6 0.7 0.9 1l0.9 0.9c0.3 0.3 0.6 0.7 1 1l0.9 0.9c0.3 0.3 0.7 0.6 1 0.9l0.9 0.9c0.3 0.3 0.7 0.6 1 0.9 0.3 0.3 0.7 0.5 1 0.8 0.3 0.3 0.7 0.6 1 0.9 0.3 0.3 0.7 0.5 1 0.8 0.4 0.3 0.7 0.5 1.1 0.8 0.3 0.3 0.7 0.5 1 0.8 0.4 0.3 0.7 0.5 1.1 0.8 0.4 0.2 0.7 0.5 1.1 0.7 0.4 0.2 0.7 0.5 1.1 0.7 0.4 0.2 0.7 0.5 1.1 0.7 0.4 0.2 0.7 0.5 1.1 0.7 0.4 0.2 0.7 0.4 1.1 0.6 0.4 0.2 0.7 0.4 1.1 0.6l273.5 148.8 0.1 0.1c-0.4-0.2-0.8-0.5-1.2-0.7-0.4-0.2-0.7-0.4-1.1-0.6-0.3 0.2-0.7 0-1-0.2z" fill="#FF7900" p-id="31907"></path></svg>