<?xml version="1.0" standalone="no"?><!DOCTYPE svg PUBLIC "-//W3C//DTD SVG 1.1//EN" "http://www.w3.org/Graphics/SVG/1.1/DTD/svg11.dtd"><svg t="1676187895065" class="icon" viewBox="0 0 1024 1024" version="1.1" xmlns="http://www.w3.org/2000/svg" p-id="2017" width="180" height="180" xmlns:xlink="http://www.w3.org/1999/xlink"><path d="M524.151 117.586c-7.124 5.84-16.865 5.888-24.014 0.146L914.82 450.84c11.861 9.528 29.199 7.636 38.726-4.225 9.528-11.86 7.636-29.198-4.224-38.726L534.638 74.782c-13.164-10.575-32.386-10.48-45.411 0.197L74.467 414.946c-11.766 9.644-13.486 27-3.842 38.766 9.645 11.765 27 13.485 38.766 3.841l414.76-339.967z" p-id="2018" fill="#8a8a8a"></path><path d="M949.322 559.39L534.638 226.282c-13.164-10.575-32.386-10.48-45.411 0.197L74.467 566.447c-11.766 9.644-13.486 27-3.842 38.766 9.645 11.765 27 13.485 38.766 3.841l58.288-47.777v315.732c0 45.63 37.015 82.608 82.661 82.608H450.022V743.714c0-7.615 6.164-13.783 13.757-13.783h96.443c7.596 0 13.757 6.165 13.757 13.783v215.903H773.66c45.67 0 82.66-36.97 82.66-82.608V555.347l58.5 46.992c11.861 9.528 29.199 7.636 38.726-4.225 9.527-11.86 7.636-29.198-4.224-38.725zM801.229 877.008c0 15.206-12.318 27.516-27.57 27.516H629.07v-160.81c0-38.036-30.816-68.874-68.847-68.874h-96.443c-38.027 0-68.847 30.84-68.847 68.873v160.811H250.34c-15.232 0-27.569-12.325-27.569-27.516v-360.89l289.405-237.216 289.054 232.19V877.01z" p-id="2019" fill="#8a8a8a"></path></svg>