<?xml version="1.0" standalone="no"?><!DOCTYPE svg PUBLIC "-//W3C//DTD SVG 1.1//EN" "http://www.w3.org/Graphics/SVG/1.1/DTD/svg11.dtd"><svg t="1676262332109" class="icon" viewBox="0 0 1024 1024" version="1.1" xmlns="http://www.w3.org/2000/svg" p-id="47197" xmlns:xlink="http://www.w3.org/1999/xlink" width="180" height="180"><path d="M892 593.67l-30.49-17.6c-49.32-28.47-49.32-99.66 0-128.14l30.49-17.6a57.2 57.2 0 0 0 20.87-77.91l-51.47-89.14a57.2 57.2 0 0 0-77.91-20.87L753.05 260c-49.32 28.47-111-7.12-111-64.07v-35.2a57.2 57.2 0 0 0-57-57H482.12a57.2 57.2 0 0 0-57 57v35.21c0 56.95-61.65 92.54-111 64.07l-30.49-17.6a57.2 57.2 0 0 0-77.91 20.87l-51.47 89.14a57.2 57.2 0 0 0 20.87 77.91l30.49 17.6c49.32 28.47 49.32 99.66 0 128.14l-30.49 17.6a57.2 57.2 0 0 0-20.87 77.91l51.47 89.14a57.2 57.2 0 0 0 77.91 20.87L314.12 764c49.32-28.47 111 7.12 111 64.07v35.21a57.2 57.2 0 0 0 57 57h102.93a57.2 57.2 0 0 0 57-57v-35.22c0-56.95 61.65-92.54 111-64.07l30.49 17.6a57.2 57.2 0 0 0 77.91-20.87l51.47-89.14A57.2 57.2 0 0 0 892 593.67z" fill="#FED547" p-id="47198"></path><path d="M567.92 160.73v35.21c0 56.62 60.93 92.1 110.1 64.53a73.29 73.29 0 0 1-37.85-64.53v-35.21a57.2 57.2 0 0 0-57-57h-72.28a57.2 57.2 0 0 1 57.03 57zM567.92 828.06v35.21a57.2 57.2 0 0 1-57 57h72.26a57.2 57.2 0 0 0 57-57v-35.21A73.29 73.29 0 0 1 678 763.53c-49.15-27.53-110.08 7.91-110.08 64.53zM890.13 593.67l-30.49-17.6c-49.32-28.47-49.32-99.66 0-128.14l30.49-17.6A57.2 57.2 0 0 0 911 352.42l-51.47-89.14a57.2 57.2 0 0 0-77.91-20.88l-8.3 4.79a56.43 56.43 0 0 1 14 16.08l51.47 89.14a57.2 57.2 0 0 1-20.88 77.91l-30.49 17.6c-49.32 28.47-49.32 99.66 0 128.14l30.49 17.6a57.2 57.2 0 0 1 20.87 77.91l-51.47 89.14a56.43 56.43 0 0 1-14 16.08l8.3 4.79a57.2 57.2 0 0 0 77.91-20.88L911 671.58a57.2 57.2 0 0 0-20.87-77.91z" fill="#E2B742" p-id="47199"></path><path d="M547.39 925.77H444.45a62.58 62.58 0 0 1-62.51-62.51v-35.2a68.5 68.5 0 0 0-102.76-59.33l-30.49 17.6a62.67 62.67 0 0 1-85.39-22.88l-51.47-89.14a62.67 62.67 0 0 1 22.88-85.38l30.49-17.61a68.5 68.5 0 0 0 0-118.65l-30.49-17.6a62.58 62.58 0 0 1-22.88-85.39l51.47-89.14a62.67 62.67 0 0 1 85.39-22.88l30.49 17.6a68.5 68.5 0 0 0 102.76-59.33v-35.2a62.57 62.57 0 0 1 62.51-62.5h102.94a62.57 62.57 0 0 1 62.51 62.5v35.21a68.5 68.5 0 0 0 102.76 59.33l30.49-17.6a62.67 62.67 0 0 1 85.39 22.88L880 349.68a62.58 62.58 0 0 1-22.88 85.39l-30.49 17.6a68.5 68.5 0 0 0 0 118.65l30.49 17.61A62.67 62.67 0 0 1 880 674.31l-51.47 89.14a62.67 62.67 0 0 1-85.39 22.88l-30.49-17.6a68.5 68.5 0 0 0-102.76 59.33v35.21a62.58 62.58 0 0 1-62.5 62.5z m-233.95-177.3a79.76 79.76 0 0 1 79.45 79.58v35.21a51.62 51.62 0 0 0 51.56 51.56h102.94a51.62 51.62 0 0 0 51.56-51.56v-35.2a79.45 79.45 0 0 1 119.18-68.81l30.49 17.6A51.72 51.72 0 0 0 819 758l51.47-89.14a51.72 51.72 0 0 0-18.87-70.43l-30.49-17.61a79.45 79.45 0 0 1 0-137.62l30.49-17.6a51.62 51.62 0 0 0 18.87-70.43L819 266a51.72 51.72 0 0 0-70.43-18.87l-30.49 17.6a79.45 79.45 0 0 1-119.18-68.81v-35.19a51.61 51.61 0 0 0-51.56-51.55H444.45a51.61 51.61 0 0 0-51.56 51.55v35.21a79.45 79.45 0 0 1-119.18 68.81l-30.49-17.6A51.72 51.72 0 0 0 172.8 266l-51.47 89.14a51.62 51.62 0 0 0 18.87 70.43l30.49 17.6a79.45 79.45 0 0 1 0 137.62l-30.49 17.62a51.72 51.72 0 0 0-18.87 70.43L172.8 758a51.72 51.72 0 0 0 70.43 18.87l30.49-17.6a79.29 79.29 0 0 1 39.72-10.8z" fill="#28CA67" p-id="47200"></path><path d="M509 591.14h-16A71.24 71.24 0 0 1 421.84 520v-16A71.24 71.24 0 0 1 493 432.86h16A71.24 71.24 0 0 1 580.12 504v16A71.24 71.24 0 0 1 509 591.14zM493 443.8a60.28 60.28 0 0 0-60.21 60.2v16A60.28 60.28 0 0 0 493 580.19h16A60.28 60.28 0 0 0 569.18 520v-16A60.28 60.28 0 0 0 509 443.8z" fill="#28CA67" p-id="47201"></path></svg>