<?xml version="1.0" standalone="no"?><!DOCTYPE svg PUBLIC "-//W3C//DTD SVG 1.1//EN" "http://www.w3.org/Graphics/SVG/1.1/DTD/svg11.dtd"><svg t="1676178777551" class="icon" viewBox="0 0 1024 1024" version="1.1" xmlns="http://www.w3.org/2000/svg" p-id="3280" xmlns:xlink="http://www.w3.org/1999/xlink" width="210" height="210"><path d="M1024 512c0 282.737778-229.262222 512-512 512s-512-229.262222-512-512 229.262222-512 512-512 512 229.262222 512 512" fill="#F2F2F2" p-id="3281"></path><path d="M944.355556 546.133333c0 220.16-178.062222 398.222222-398.222223 398.222223s-398.222222-178.062222-398.222222-398.222223 178.062222-398.222222 398.222222-398.222222 398.222222 178.062222 398.222223 398.222222" fill="#75FFF3" p-id="3282"></path><path d="M512 921.6c-225.848889 0-409.6-183.751111-409.6-409.6s183.751111-409.6 409.6-409.6 409.6 183.751111 409.6 409.6-183.751111 409.6-409.6 409.6z m0-796.444444c-213.333333 0-386.844444 173.511111-386.844444 386.844444s173.511111 386.844444 386.844444 386.844444 386.844444-173.511111 386.844444-386.844444-173.511111-386.844444-386.844444-386.844444z" fill="#6F0EF5" p-id="3283"></path><path d="M409.6 318.577778v398.222222l295.822222-199.111111z" fill="#FFFFFF" p-id="3284"></path><path d="M409.6 728.177778c-1.706667 0-3.413333-0.568889-5.12-1.137778-3.982222-1.706667-6.257778-5.688889-6.257778-10.24v-398.222222c0-3.982222 2.275556-7.964444 6.257778-10.24 3.982222-1.706667 7.964444-1.706667 11.946667 0.568889l295.822222 199.111111c3.413333 2.275556 5.12 5.688889 5.12 9.671111s-1.706667 7.395556-5.12 9.671111l-295.822222 199.111111c-2.275556 1.137778-4.551111 1.706667-6.826667 1.706667z m11.377778-388.551111v355.555555l263.964444-177.493333L420.977778 339.626667z" fill="#9D4CE8" p-id="3285"></path></svg>