<?xml version="1.0" standalone="no"?><!DOCTYPE svg PUBLIC "-//W3C//DTD SVG 1.1//EN" "http://www.w3.org/Graphics/SVG/1.1/DTD/svg11.dtd"><svg t="1676264102900" class="icon" viewBox="0 0 1024 1024" version="1.1" xmlns="http://www.w3.org/2000/svg" p-id="59475" xmlns:xlink="http://www.w3.org/1999/xlink" width="180" height="180"><path d="M64 512c0 160.055 85.388 307.952 224 387.98 138.612 80.027 309.388 80.027 448 0C874.612 819.951 960 672.054 960 512c0-247.424-200.576-448-448-448S64 264.576 64 512z" fill="#E78AF2" p-id="59476"></path><path d="M775.75 418.948l-105.194-15.33c-33.326-4.844-62.14-25.822-77.049-56.096l-47.023-95.578c-13.07-26.592-50.868-26.592-63.98 0l-47.023 95.578c-14.9 30.282-43.718 51.264-77.05 56.096l-105.194 15.33c-29.256 4.283-40.916 40.295-19.774 60.978l76.109 74.381c24.13 23.552 35.107 57.51 29.427 90.782l-17.981 105.042c-4.997 29.204 25.583 51.471 51.764 37.683l94.09-49.588a102.012 102.012 0 0 1 95.2 0l94.09 49.588c26.182 13.788 56.762-8.48 51.765-37.683l-17.98-105.042c-5.697-33.272 5.309-67.224 29.427-90.782l76.109-74.38c21.227-20.684 9.524-56.696-19.732-60.979zM609.354 655.366H419.678c-13.283 0-14.308-13.488-14.308-20.04 0-6.509 7.816-12.161 14.308-12.161h189.675c6.492 0 12.856 6.594 12.856 13.146 0.042 12.247-6.322 19.055-12.856 19.055zM431.308 586.93h-1.681c-6.432-0.724-11.697-5.317-13.143-11.464l-27.815-119.104c-1.857-8.222 3.48-16.354 11.92-18.163 8.441-1.809 16.789 3.39 18.645 11.613l17.423 77.566 40.498-80.99c2.144-5.175 7.078-8.748 12.782-9.256 5.704-0.507 11.22 2.135 14.292 6.845a14.56 14.56 0 0 1 0.282 15.512l-59.449 119.103c-2.571 5.113-7.91 8.349-13.754 8.338z m91.706-12.548c-1.342 7.268-8.154 12.544-16.057 12.436a9.457 9.457 0 0 1-2.89 0c-8.664-1.446-14.465-9.131-13.007-17.23l22.641-119.866c0.975-5.353 4.937-9.814 10.393-11.703 5.456-1.888 11.577-0.917 16.058 2.548 4.48 3.464 6.64 8.896 5.664 14.249l-22.802 119.566z m140.596-89.84c-4.81 24.127-26.392 41.765-51.857 42.379h-18.01l-8.695 47.469c-1.298 7.264-7.884 12.536-15.526 12.429a8.85 8.85 0 0 1-2.795 0c-8.377-1.447-13.986-9.127-12.576-17.221l11.024-59.898c1.16-7.383 7.784-12.813 15.526-12.728h31.052c10.342-0.626 19.011-7.767 21.27-17.52 0.801-3.183 0.058-6.544-2.018-9.135-2.092-2.233-5.112-3.442-8.229-3.294h-31.052c-8.575 0-15.526-6.705-15.526-14.975s6.951-14.974 15.526-14.974h31.052c12.274-0.154 23.986 4.946 31.984 13.926 7.954 9.366 11.195 21.65 8.85 33.543z" fill="#F9EFFF" p-id="59477"></path></svg>