<?xml version="1.0" standalone="no"?><!DOCTYPE svg PUBLIC "-//W3C//DTD SVG 1.1//EN" "http://www.w3.org/Graphics/SVG/1.1/DTD/svg11.dtd"><svg t="1676263191549" class="icon" viewBox="0 0 3222 1024" version="1.1" xmlns="http://www.w3.org/2000/svg" p-id="55951" xmlns:xlink="http://www.w3.org/1999/xlink" width="566.3671875" height="180"><path d="M2533.50188862 82.339079H1118.88951162L1061.05840562 22.956139H570.12760062L320.70455962 280.294457l490.930806 494.934355L911.20073062 676.196029l1622.301158-0.541765c126.479143 1.625295 230.204161-124.348813 238.394911-275.216559 8.980442-165.366843-99.115426-318.906682-238.394911-318.098626zM403.84251262 280.294457L601.79789062 82.339079h415.708129l197.955377 197.955378L811.63536562 684.092941z" fill="#FCC12D" p-id="55952"></path><path d="M2179.57332062 311.53317q-8.365217 63.597687-54.25913 103.210801-44.075787 37.537878-101.833433 37.537879h-146.129598l-12.37795 94.349731h-86.939489l25.114016-191.27055h241.415939q17.850694 0 31.679472-12.130024t16.454961-32.193689q2.617-20.036118-8.071379-31.642742t-28.566619-11.606624H1814.69008262L1884.81649662 170.793674h175.825659q57.427077 0 91.705184 37.519513 35.56365 39.622296 27.225981 103.219983z m-535.998297 235.070863L1692.91235662 170.793674h86.948672l-49.337333 375.837907z m-222.444987 5.729853q-21.064553 0-36.518626-42.753514L1262.55821162 170.793674h94.42319l82.642101 232.48141L1576.36863062 170.793674H1671.44377562l-204.034163 339.346828q-25.24257 42.239296-46.288758 42.239296zM2308.89902462 348.483372H2555.71424862v221.554288h-331.27545V170.793674H2555.71424862v36.19724h-246.815224zM2471.23565662 533.84042V384.671429h-162.336632v149.168991z" fill="#FFFFFF" p-id="55953"></path><path d="M605.01174962 240.580336l1.303909-3.920908c3.920909-13.084999 18.309816-20.926816 32.689542-17.005908 6.537908 2.617 11.771908 6.537908 14.388908 13.075817a25.710876 25.710876 0 0 1-2.617 28.768633c-1.313091 0-1.313091 1.313091-2.617 2.617 19.613725 11.771908 37.923542 23.534634 56.224175 33.975086 6.537908 3.920909 14.388908 9.182456 20.926817 13.075816a4.930979 4.930979 0 0 0 7.841817-1.313091l1.313091-1.303909c22.230725-39.22745 43.157541-78.464083 65.379084-118.995441a25.830248 25.830248 0 0 1-15.692817-23.534634q0-11.781091 7.851-19.613725c10.458817-10.467999 26.151633-9.182456 36.61045 0l1.303909 1.303908c10.467999 13.075817 6.537908 28.768633-10.458817 40.540542 5.234 10.458817 10.458817 20.917634 16.996725 30.072542 15.692817 28.768633 31.385633 57.537267 47.07845 84.992809 3.920909 6.537908 6.537908 7.851 11.771908 3.920908 24.79263-14.379725 48.382358-30.072542 73.220901-44.452267l3.920908-2.617c-5.224817-3.920909-7.841817-10.458817-9.182455-16.996725-1.313091-14.388908 10.458817-26.160816 23.534633-27.464725 11.771908-1.303909 22.230725 6.537908 26.151634 18.309816 0 3.920909 1.303909 5.224817 1.303908 6.537909v9.182455c-3.920909 13.075817-13.075817 20.917634-27.455542 20.917634 0 1.303909-1.303909 2.617-1.303908 5.234L942.35680262 422.392957c-1.303909 6.537908-3.920909 7.841817-10.458817 7.841817H687.38755862c-6.537908 0-9.182456-1.303909-10.458817-7.841817-11.771908-39.22745-23.534634-78.4549-33.975085-118.995442-2.607817-10.458817-6.537908-20.917634-9.182456-32.689542a29.769521 29.769521 0 0 1-24.847725-13.075817c-1.303909-3.920909-2.617-5.234-3.920908-7.841817V240.580336z m205.29216 214.474615h115.074533c10.458817 0 19.613725 7.851 19.613725 18.309817 0 9.182456-6.537908 18.300634-15.692817 19.613725h-234.060792a19.66882 19.66882 0 0 1-18.309817-13.075817c-2.617-7.851 0-16.996725 6.537909-20.926816a22.129718 22.129718 0 0 1 13.075816-3.920909c37.923542-1.303909 75.837901 0 113.761443 0z" fill="#FFF142" p-id="55954"></path><path d="M809.65195462 139.095837a26.629121 26.629121 0 0 1 18.309817 7.823452l1.303908 1.303909c10.458817 13.084999 6.537908 28.768633-10.458817 40.540541 5.234 10.458817 10.458817 20.926816 16.996726 30.072542 15.692817 28.768633 31.385633 57.537267 47.078449 85.001992 3.920909 6.537908 6.537908 7.841817 11.762726 3.920908 24.847725-14.388908 48.382358-30.072542 73.230083-44.46145l3.920909-2.617c-5.224817-3.920909-7.841817-10.458817-9.182456-16.996725-1.303909-14.379725 10.467999-26.151633 23.543816-27.455542 11.762726-1.313091 22.230725 6.537908 26.151634 18.300634 0 1.313091 1.303909 2.617 1.303909 3.920909v9.182455c-3.920909 13.075817-13.075817 20.926816-27.455543 20.926816 0 1.303909-1.313091 2.617-1.313091 5.224818l-43.157541 146.460166c-1.303909 6.537908-3.920909 7.841817-10.458817 7.841817h-121.575712V139.095837z m0 313.828785H924.72648762c10.458817 0 19.613725 7.841817 19.613726 18.300633 0 9.182456-6.537908 18.309816-15.692817 19.622908H810.95586362" fill="#FFC41F" p-id="55955"></path></svg>